<?xml version="1.0" encoding="utf-8"?>
<svg xmlns="http://www.w3.org/2000/svg" viewBox="0 0 30 30" width="480" height="480">
  <path d="M8 3C6.343 3 5 4.343 5 6L5 24 A 1.0001 1.0001 0 0 0 5.2949219 24.708984C5.6477556 25.972969 6.6303589 27 8 27L24 27 A 1.0001 1.0001 0 1 0 24 25L8 25C7.4349698 25 7 24.56503 7 24C7 23.43497 7.4349698 23 8 23L23 23C24.105 23 25 22.105 25 21L25 5C25 3.895 24.105 3 23 3L8 3 z M 12 9L19 9C19.552 9 20 9.448 20 10C20 10.552 19.552 11 19 11L12 11C11.448 11 11 10.552 11 10C11 9.448 11.448 9 12 9 z" fill="#19355A" />
</svg>