<?xml version="1.0" encoding="utf-8"?>
<svg xmlns="http://www.w3.org/2000/svg" viewBox="0 0 30 30" width="480" height="480">
  <path d="M11 2C9.895 2 9 2.895 9 4L9 20C9 21.105 9.895 22 11 22L24 22C25.105 22 26 21.105 26 20L26 8.5C26 8.235 25.895031 7.9809687 25.707031 7.7929688L20.207031 2.2929688C20.019031 2.1049687 19.765 2 19.5 2L11 2 z M 19 3.9042969L24.095703 9L20 9C19.448 9 19 8.552 19 8L19 3.9042969 z M 6 7C4.895 7 4 7.895 4 9L4 25C4 26.105 4.895 27 6 27L19 27C20.105 27 21 26.105 21 25L21 24L11 24C8.794 24 7 22.206 7 20L7 7L6 7 z" fill="#FFFFFF" />
</svg>