<?xml version="1.0" encoding="utf-8"?>
<svg xmlns="http://www.w3.org/2000/svg" viewBox="0 0 30 30" width="480" height="480">
  <path d="M7.984375 2.9863281 A 1.0001 1.0001 0 0 0 7.8398438 3L6 3 A 1.0001 1.0001 0 1 0 6 5L7 5L7 7C7 11.611855 10.11218 14.053381 11.464844 15C10.11218 15.946619 7 18.388145 7 23L7 25L6 25 A 1.0001 1.0001 0 1 0 6 27L7.8320312 27 A 1.0001 1.0001 0 0 0 8.1582031 27L21.832031 27 A 1.0001 1.0001 0 0 0 22.158203 27L24 27 A 1.0001 1.0001 0 1 0 24 25L23 25L23 23C23 18.388145 19.88782 15.946619 18.535156 15C19.88782 14.053381 23 11.611855 23 7L23 5L24 5 A 1.0001 1.0001 0 1 0 24 3L22.154297 3 A 1.0001 1.0001 0 0 0 21.984375 2.9863281 A 1.0001 1.0001 0 0 0 21.839844 3L8.1542969 3 A 1.0001 1.0001 0 0 0 7.984375 2.9863281 z M 9.0898438 8L20.910156 8C20.30229 11.758553 16.486328 14.142578 16.486328 14.142578 A 1.0001 1.0001 0 0 0 16.486328 15.857422C16.486328 15.857422 20.30229 18.241447 20.910156 22L18.857422 22C18.411326 20.277785 16.861621 19 15 19C13.138379 19 11.588674 20.277785 11.142578 22L9.0898438 22C9.6977096 18.241447 13.513672 15.857422 13.513672 15.857422 A 1.0001 1.0001 0 0 0 13.513672 14.142578C13.513672 14.142578 9.6977096 11.758553 9.0898438 8 z" fill="#FFFFFF" />
</svg>